{"title":"Rites Of Spring 2011 STV DVDRip XviD-MARGiN","uid":7762421,"size":740714446,"categoryP":"video","categoryS":"movies","magnet":"?xt=urn:btih:ecf8943e00cd2a82f83841a55baf519ad4de8fc3&amp;dn=Rites+Of+Spring+2011+STV+DVDRip+XviD-MARGiN&amp;tr=udp%3A%2F%2Ftracker.openbittorrent.com%3A80&amp;tr=udp%3A%2F%2Fopen.demonii.com%3A1337&amp;tr=udp%3A%2F%2Ftracker.coppersurfer.tk%3A6969&amp;tr=udp%3A%2F%2Fexodus.desync.com%3A6969","seeders":1,"leechers":0,"uploader":"lyrical1986","files":3,"time":1351270140,"description":"A ransom scheme turns into a nightmare for a group of kidnappers who become victims of a horrifying secret that must be paid every spring\n\nMarco St. John\t...\tThe Stranger\nSonny Marinelli\t...\tPaul Nolan\nKatherine Randolph...\tAmy\nAnessa Ramsey\t...\tRachel Adams\nAJ Bowen\t...\tBen Geringer\nShanna Forrestall...\tGillian Hayden\nHannah Bryan\t...\tAlyssa Miller\n &lt;a href=&quot;\nhttp://www.imdb.com/title/tt1227789/&quot; rel=&quot;nofollow&quot; target=&quot;_NEW&quot;&gt;\nhttp://www.imdb.com/title/tt1227789/&lt;/a&gt;\n\nFormat                           : AVI\nFormat/Info                      : Audio Video Interleave\nFile size                        : 700 MiB\nDuration                         : 1h 20mn\nOverall bit rate                 : 1 218 Kbps\n\nVideo\nID                               : 0\nFormat                           : MPEG-4 Visual\nFormat profile                   : Advanced Simple@L5\nFormat settings, BVOP            : 1\nFormat settings, QPel            : No\nFormat settings, GMC             : No warppoints\nFormat settings, Matrix          : Default (H.263)\nCodec ID                         : XVID\nCodec ID/Hint                    : XviD\nDuration                         : 1h 20mn\nBit rate                         : 1 063 Kbps\nWidth                            : 640 pixels\nHeight                           : 272 pixels\nDisplay aspect ratio             : 2.35:1\nFrame rate                       : 23.976 fps\nColor space                      : YUV\nChroma subsampling               : 4:2:0\nBit depth                        : 8 bits\nScan type                        : Progressive\nCompression mode                 : Lossy\nBits/(Pixel*Frame)               : 0.255\nStream size                      : 611 MiB (87%)\nWriting library                  : XviD 64\n\nAudio\nID                               : 1\nFormat                           : MPEG Audio\nFormat version                   : Version 1\nFormat profile                   : Layer 3\nMode                             : Joint stereo\nMode extension                   : MS Stereo\nCodec ID                         : 55\nCodec ID/Hint                    : MP3\nDuration                         : 1h 20mn\nBit rate mode                    : Variable\nBit rate                         : 142 Kbps\nNominal bit rate                 : 160 Kbps\nChannel(s)                       : 2 channels\nSampling rate                    : 48.0 KHz\nCompression mode                 : Lossy\nStream size                      : 81.5 MiB (12%)\nAlignment                        : Aligned on interleaves\nInterleave, duration             : 24 ms (0.58 video frame)\nInterleave, preload duration     : 59 ms\n &lt;a href=&quot;\nhttp://img90.imageshack.us/img90/4489/marginritessamples.jpg&quot; rel=&quot;nofollow&quot; target=&quot;_NEW&quot;&gt;\nhttp://img90.imageshack.us/img90/4489/marginritessamples.jpg&lt;/a&gt;","torrent":{"xt":"urn:btih:ecf8943e00cd2a82f83841a55baf519ad4de8fc3","amp;dn":"Rites+Of+Spring+2011+STV+DVDRip+XviD-MARGiN","amp;tr":["udp%3A%2F%2Ftracker.openbittorrent.com%3A80","udp%3A%2F%2Fopen.demonii.com%3A1337","udp%3A%2F%2Ftracker.coppersurfer.tk%3A6969","udp%3A%2F%2Fexodus.desync.com%3A6969"],"infoHash":"ecf8943e00cd2a82f83841a55baf519ad4de8fc3","infoHashBuffer":{"type":"Buffer","data":[236,248,148,62,0,205,42,130,248,56,65,165,91,175,81,154,212,222,143,195]},"announce":[],"urlList":[]}}